<svg width="298" height="144" viewBox="0 0 298 144" fill="none" xmlns="http://www.w3.org/2000/svg">
<circle cx="45" cy="45" r="45" fill="url(#paint0_radial_2_14)"/>
<g filter="url(#filter0_i_2_14)">
<path d="M134.176 0C114.035 0 94.0165 8.29342 79.7746 22.5354C70.8016 31.5084 64.1967 42.7738 60.5338 54.9177C51.7296 56.5796 43.4146 60.8767 37.0744 67.2168C28.8107 75.4805 24 87.092 24 98.7789C24 110.466 28.8107 122.081 37.0744 130.345C45.3383 138.609 56.9536 143.419 68.6404 143.419H268.573C276.032 143.419 283.448 140.35 288.722 135.075C293.997 129.801 297.067 122.385 297.067 114.925C297.067 107.466 293.997 100.054 288.722 94.7795C283.48 89.537 276.123 86.4765 268.71 86.4389C267.263 72.9233 261.14 59.9141 251.521 50.2948C240.444 39.2178 224.876 32.768 209.21 32.768C205.407 32.768 201.612 33.158 197.883 33.8922C195.155 29.8202 192.047 26.004 188.578 22.5354C174.336 8.29342 154.318 0 134.176 0V0Z" fill="white"/>
</g>
<defs>
<filter id="filter0_i_2_14" x="24" y="-9" width="275.067" height="152.419" filterUnits="userSpaceOnUse" color-interpolation-filters="sRGB">
<feFlood flood-opacity="0" result="BackgroundImageFix"/>
<feBlend mode="normal" in="SourceGraphic" in2="BackgroundImageFix" result="shape"/>
<feColorMatrix in="SourceAlpha" type="matrix" values="0 0 0 0 0 0 0 0 0 0 0 0 0 0 0 0 0 0 127 0" result="hardAlpha"/>
<feOffset dx="2" dy="-9"/>
<feGaussianBlur stdDeviation="9"/>
<feComposite in2="hardAlpha" operator="arithmetic" k2="-1" k3="1"/>
<feColorMatrix type="matrix" values="0 0 0 0 0.670588 0 0 0 0 0.678431 0 0 0 0 0.67451 0 0 0 1 0"/>
<feBlend mode="normal" in2="shape" result="effect1_innerShadow_2_14"/>
</filter>
<radialGradient id="paint0_radial_2_14" cx="0" cy="0" r="1" gradientUnits="userSpaceOnUse" gradientTransform="translate(90 14) rotate(139.279) scale(104.235)">
<stop stop-color="#FDF350"/>
<stop offset="0.9999" stop-color="#C78407"/>
<stop offset="1" stop-color="#C78407" stop-opacity="0"/>
</radialGradient>
</defs>
</svg>
