<svg width="189" height="93" viewBox="0 0 189 93" fill="none" xmlns="http://www.w3.org/2000/svg">
<g filter="url(#filter0_i_1_4)">
<path d="M76.2574 0C62.3169 0 48.4611 5.37786 38.6038 14.6131C32.3932 20.4315 27.8217 27.7366 25.2864 35.6113C19.1927 36.689 13.4376 39.4754 9.04933 43.5866C3.32964 48.9452 0 56.4747 0 64.053C0 71.6314 3.32964 79.1632 9.04933 84.5219C14.7691 89.8805 22.8085 93 30.8974 93H169.278C174.441 93 179.574 91.0097 183.225 87.5894C186.876 84.169 189 79.3604 189 74.5232C189 69.6859 186.876 64.88 183.225 61.4596C179.596 58.0601 174.504 56.0756 169.373 56.0512C168.372 47.287 164.134 38.8512 157.476 32.6136C149.809 25.4307 139.034 21.2484 128.191 21.2484C125.559 21.2484 122.932 21.5012 120.351 21.9773C118.463 19.3368 116.312 16.8623 113.911 14.6131C104.054 5.37786 90.1979 0 76.2574 0V0Z" fill="white"/>
</g>
<defs>
<filter id="filter0_i_1_4" x="0" y="-9" width="191" height="102" filterUnits="userSpaceOnUse" color-interpolation-filters="sRGB">
<feFlood flood-opacity="0" result="BackgroundImageFix"/>
<feBlend mode="normal" in="SourceGraphic" in2="BackgroundImageFix" result="shape"/>
<feColorMatrix in="SourceAlpha" type="matrix" values="0 0 0 0 0 0 0 0 0 0 0 0 0 0 0 0 0 0 127 0" result="hardAlpha"/>
<feOffset dx="2" dy="-9"/>
<feGaussianBlur stdDeviation="9"/>
<feComposite in2="hardAlpha" operator="arithmetic" k2="-1" k3="1"/>
<feColorMatrix type="matrix" values="0 0 0 0 0.670588 0 0 0 0 0.678431 0 0 0 0 0.67451 0 0 0 1 0"/>
<feBlend mode="normal" in2="shape" result="effect1_innerShadow_1_4"/>
</filter>
</defs>
</svg>
